<?xml version="1.0" standalone="no"?>
<!DOCTYPE svg PUBLIC "-//W3C//DTD SVG 20010904//EN"
 "http://www.w3.org/TR/2001/REC-SVG-20010904/DTD/svg10.dtd">
<svg version="1.0" xmlns="http://www.w3.org/2000/svg"
 width="24.000000pt" height="24.000000pt" viewBox="0 0 24.000000 24.000000"
 preserveAspectRatio="xMidYMid meet">

<g transform="translate(0.000000,24.000000) scale(0.100000,-0.100000)"
fill="#000000" stroke="none">
<path d="M10 180 c0 -13 7 -20 20 -20 17 0 20 -7 20 -40 0 -33 -3 -40 -20 -40
-13 0 -20 -7 -20 -20 0 -17 7 -20 50 -20 43 0 50 3 50 20 0 11 -6 29 -12 40
-10 16 -10 24 0 40 6 11 12 29 12 40 0 17 -7 20 -50 20 -43 0 -50 -3 -50 -20z"/>
<path d="M130 180 c0 -11 6 -29 12 -40 10 -16 10 -24 0 -40 -6 -11 -12 -29
-12 -40 0 -17 7 -20 50 -20 43 0 50 3 50 20 0 13 -7 20 -20 20 -17 0 -20 7
-20 40 0 33 3 40 20 40 13 0 20 7 20 20 0 17 -7 20 -50 20 -43 0 -50 -3 -50
-20z"/>
<path d="M10 120 c0 -11 7 -20 15 -20 8 0 15 9 15 20 0 11 -7 20 -15 20 -8 0
-15 -9 -15 -20z"/>
<path d="M200 120 c0 -11 7 -20 15 -20 8 0 15 9 15 20 0 11 -7 20 -15 20 -8 0
-15 -9 -15 -20z"/>
<path d="M110 120 c0 -5 5 -10 10 -10 6 0 10 5 10 10 0 6 -4 10 -10 10 -5 0
-10 -4 -10 -10z"/>
</g>
</svg>
